<?xml version="1.0" encoding="utf-8"?><svg xml:space="preserve" viewBox="0 0 100 100" y="0" x="0" xmlns="http://www.w3.org/2000/svg" id="Layer_1" version="1.1" width="200px" height="200px" xmlns:xlink="http://www.w3.org/1999/xlink" style="width:100%;height:100%;background-size:initial;background-repeat-y:initial;background-repeat-x:initial;background-position-y:initial;background-position-x:initial;background-origin:initial;background-image:initial;background-color:rgb(255, 255, 255);background-clip:initial;background-attachment:initial;animation-play-state:paused" ><g class="ldl-scale" style="transform-origin:50% 50%;transform:rotate(0deg) scale(0.8, 0.8);animation-play-state:paused" ><g style="animation-play-state:paused" ><path d="M63.468 67.821l8.951 9.163 7.248-.001" stroke-width="3.5" stroke="#333" fill="none" stroke-miterlimit="10" style="stroke:rgb(51, 51, 51);animation-play-state:paused" ></path>
<circle stroke-miterlimit="10" stroke="#333" fill="#fff" stroke-width="3.5" r="3.662" cy="76.984" cx="79.667" style="stroke:rgb(51, 51, 51);fill:rgb(255, 255, 255);animation-play-state:paused" ></circle></g>
<g style="animation-play-state:paused" ><path d="M41.72 74.355l-7.767 9.32H19.085" stroke-width="3.5" stroke="#333" fill="none" stroke-miterlimit="10" style="stroke:rgb(51, 51, 51);animation-play-state:paused" ></path>
<circle stroke-miterlimit="10" stroke="#333" fill="#fff" stroke-width="3.5" r="3.662" cy="83.675" cx="19.861" style="stroke:rgb(51, 51, 51);fill:rgb(255, 255, 255);animation-play-state:paused" ></circle></g>
<g style="animation-play-state:paused" ><path d="M73.72 36.043l6.835-7.18" stroke-width="3.5" stroke="#333" fill="none" stroke-miterlimit="10" style="stroke:rgb(51, 51, 51);animation-play-state:paused" ></path>
<circle stroke-miterlimit="10" stroke="#333" fill="#fff" stroke-width="3.5" r="3.662" cy="29.271" cx="80.166" style="stroke:rgb(51, 51, 51);fill:rgb(255, 255, 255);animation-play-state:paused" ></circle></g>
<path fill="#f4e6c8" d="M42.34 24.36c-4.059 0-7.361 3.302-7.361 7.361 0 1.838.681 3.598 1.918 4.956.349.384.679.652 1.042.908a7.696 7.696 0 0 1 4.586-4.081l.702 2.167a5.356 5.356 0 0 0-.767.323 5.412 5.412 0 0 0-2.841 3.642 5.354 5.354 0 0 0 .616 3.884c.139.237.291.469.468.687l-1.767 1.438a7.71 7.71 0 0 1-.848-1.3 7.597 7.597 0 0 1-.815-4.461c-.716-.464-1.348-.89-2.061-1.675a9.606 9.606 0 0 1-2.176-3.984 9.54 9.54 0 0 1-.231-1.154c-3.237.785-5.637 3.726-5.637 7.149 0 1.984.806 3.866 2.213 5.247.116.114.228.231.352.337l-1.485 1.727a9.674 9.674 0 0 1-1.712-1.948 9.824 9.824 0 0 1-.374-.592 7.282 7.282 0 0 0-1.924 4.95c0 1.87.694 3.609 1.925 4.952a9.683 9.683 0 0 1 2.329-2.745l.714.888.714.888c-.122.098-.231.207-.346.311a7.32 7.32 0 0 0-2.407 5.429c0 3.423 2.4 6.364 5.636 7.149a9.51 9.51 0 0 1 2.337-5.047 9.641 9.641 0 0 1-.441-4.575 9.638 9.638 0 0 1 .801-2.692l1.569.731.495.231a7.43 7.43 0 0 0-.61 2.057 7.328 7.328 0 0 0 4.539 7.879c.307.123.623.233.952.315l-.552 2.211a9.6 9.6 0 0 1-5.63-3.92 7.297 7.297 0 0 0-1.286 4.162c0 4.059 3.302 7.362 7.361 7.362 4.059 0 7.362-3.302 7.362-7.362V31.721c.002-4.059-3.301-7.361-7.36-7.361z" style="fill:rgb(244, 230, 200);animation-play-state:paused" ></path>
<path fill="#333" d="M42.347 22.082c-4.988 0-9.102 3.808-9.59 8.669-4.48.844-7.859 4.821-7.859 9.47 0 .856.126 1.694.344 2.504-2.057 1.819-3.273 4.456-3.273 7.219s1.216 5.398 3.271 7.217a9.645 9.645 0 0 0-.342 2.506c0 4.649 3.379 8.626 7.859 9.47.488 4.861 4.602 8.669 9.59 8.669 5.315 0 9.64-4.324 9.64-9.64V31.721c0-5.315-4.325-9.639-9.64-9.639zm7.362 46.085c0 4.059-3.302 7.362-7.362 7.362-4.059 0-7.361-3.302-7.361-7.362 0-1.511.45-2.947 1.286-4.162a9.595 9.595 0 0 0 5.63 3.92l.552-2.211a7.333 7.333 0 0 1-5.491-8.194 7.357 7.357 0 0 1 .611-2.057l-2.064-.962a9.638 9.638 0 0 0-.801 2.692 9.654 9.654 0 0 0 .441 4.575 9.51 9.51 0 0 0-2.336 5.047c-3.236-.785-5.636-3.726-5.636-7.149a7.332 7.332 0 0 1 2.753-5.74l-1.427-1.776a9.654 9.654 0 0 0-2.329 2.745 7.281 7.281 0 0 1-1.925-4.952c0-1.869.694-3.607 1.924-4.95a9.657 9.657 0 0 0 2.085 2.54l1.485-1.727a7.358 7.358 0 0 1-2.565-5.585c0-3.423 2.4-6.365 5.637-7.149a9.598 9.598 0 0 0 2.407 5.138c.714.785 1.346 1.211 2.061 1.675a7.626 7.626 0 0 0 1.662 5.761l1.767-1.438a5.364 5.364 0 0 1-1.084-4.571 5.414 5.414 0 0 1 3.607-3.965l-.702-2.167c-2.047.662-3.695 2.168-4.586 4.081a6.121 6.121 0 0 1-1.042-.908 7.342 7.342 0 0 1-1.918-4.956c0-4.059 3.302-7.361 7.361-7.361 4.059 0 7.362 3.302 7.362 7.361v36.445z" style="fill:rgb(51, 51, 51);animation-play-state:paused" ></path>
<g style="animation-play-state:paused" ><path d="M42.053 24.36v-9.478" stroke-width="3.5" stroke="#333" fill="none" stroke-miterlimit="10" style="stroke:rgb(51, 51, 51);animation-play-state:paused" ></path>
<circle stroke-miterlimit="10" stroke="#333" fill="#fff" stroke-width="3.5" r="3.662" cy="13.662" cx="42.053" style="stroke:rgb(51, 51, 51);fill:rgb(255, 255, 255);animation-play-state:paused" ></circle></g>
<g style="animation-play-state:paused" ><path d="M59.695 23.759l6.361-8.877h11.54" stroke-width="3.5" stroke="#333" fill="none" stroke-miterlimit="10" style="stroke:rgb(51, 51, 51);animation-play-state:paused" ></path>
<circle stroke-miterlimit="10" stroke="#333" fill="#fff" stroke-width="3.5" r="3.662" cy="14.882" cx="77.596" style="stroke:rgb(51, 51, 51);fill:rgb(255, 255, 255);animation-play-state:paused" ></circle></g>
<g style="animation-play-state:paused" ><path d="M77.531 52.681h6.99" stroke-width="3.5" stroke="#333" fill="none" stroke-miterlimit="10" style="stroke:rgb(51, 51, 51);animation-play-state:paused" ></path>
<circle stroke-miterlimit="10" stroke="#333" fill="#fff" stroke-width="3.5" r="3.662" cy="52.681" cx="84.688" style="stroke:rgb(51, 51, 51);fill:rgb(255, 255, 255);animation-play-state:paused" ></circle></g>
<g style="animation-play-state:paused" ><path d="M59.29 76.919v9.419" stroke-width="3.5" stroke="#333" fill="none" stroke-miterlimit="10" style="stroke:rgb(51, 51, 51);animation-play-state:paused" ></path>
<circle stroke-miterlimit="10" stroke="#333" fill="#fff" stroke-width="3.5" r="3.662" cy="86.338" cx="59.29" style="stroke:rgb(51, 51, 51);fill:rgb(255, 255, 255);animation-play-state:paused" ></circle></g>
<g style="animation-play-state:paused" ><path d="M30.402 32.413l-6.435-6.879h-8.655" stroke-width="3.5" stroke="#333" fill="none" stroke-miterlimit="10" style="stroke:rgb(51, 51, 51);animation-play-state:paused" ></path>
<circle stroke-miterlimit="10" stroke="#333" fill="#fff" stroke-width="3.5" r="3.662" cy="25.534" cx="15.312" style="stroke:rgb(51, 51, 51);fill:rgb(255, 255, 255);animation-play-state:paused" ></circle></g>
<g style="animation-play-state:paused" ><path d="M29.41 66.366H18.197" stroke-width="3.5" stroke="#333" fill="none" stroke-miterlimit="10" style="stroke:rgb(51, 51, 51);animation-play-state:paused" ></path>
<circle stroke-miterlimit="10" stroke="#333" fill="#fff" stroke-width="3.5" r="3.662" cy="66.366" cx="18.234" style="stroke:rgb(51, 51, 51);fill:rgb(255, 255, 255);animation-play-state:paused" ></circle></g>
<g style="animation-play-state:paused" ><path fill="#f4e6c8" d="M59.297 24.36c4.059 0 7.361 3.302 7.361 7.361a7.343 7.343 0 0 1-1.918 4.956 6.034 6.034 0 0 1-1.042.908 7.696 7.696 0 0 0-4.586-4.081l-.702 2.167c.267.086.521.199.767.323a5.412 5.412 0 0 1 2.841 3.642 5.354 5.354 0 0 1-.616 3.884 5.478 5.478 0 0 1-.468.687l1.767 1.438a7.71 7.71 0 0 0 .848-1.3 7.597 7.597 0 0 0 .815-4.461c.716-.464 1.348-.89 2.061-1.675a9.606 9.606 0 0 0 2.176-3.984 9.54 9.54 0 0 0 .231-1.154c3.237.785 5.637 3.726 5.637 7.149a7.349 7.349 0 0 1-2.213 5.247c-.116.114-.228.231-.352.337l1.485 1.727a9.674 9.674 0 0 0 1.712-1.948c.13-.194.258-.389.374-.592a7.282 7.282 0 0 1 1.924 4.95c0 1.87-.694 3.609-1.925 4.952a9.683 9.683 0 0 0-2.329-2.745l-.714.888-.714.888c.122.098.231.207.346.311a7.32 7.32 0 0 1 2.407 5.429c0 3.423-2.4 6.364-5.636 7.149a9.51 9.51 0 0 0-2.337-5.047 9.641 9.641 0 0 0 .441-4.575 9.638 9.638 0 0 0-.801-2.692l-1.569.731-.495.231a7.43 7.43 0 0 1 .61 2.057 7.328 7.328 0 0 1-4.539 7.879 7.271 7.271 0 0 1-.952.315l.552 2.211a9.6 9.6 0 0 0 5.63-3.92 7.297 7.297 0 0 1 1.286 4.162c0 4.059-3.302 7.362-7.361 7.362-4.059 0-7.362-3.302-7.362-7.362V31.721c-.002-4.059 3.3-7.361 7.36-7.361z" style="fill:rgb(244, 230, 200);animation-play-state:paused" ></path>
<path fill="#333" d="M49.65 31.721v36.446c0 5.315 4.324 9.64 9.64 9.64 4.988 0 9.102-3.808 9.59-8.669 4.48-.844 7.859-4.821 7.859-9.47a9.65 9.65 0 0 0-.342-2.506c2.055-1.819 3.271-4.455 3.271-7.217 0-2.763-1.216-5.4-3.273-7.219a9.618 9.618 0 0 0 .344-2.504c0-4.649-3.379-8.626-7.859-9.47-.488-4.862-4.602-8.669-9.59-8.669-5.316-.001-9.64 4.323-9.64 9.638zm2.278 0c0-4.059 3.302-7.361 7.362-7.361 4.059 0 7.361 3.302 7.361 7.361a7.343 7.343 0 0 1-1.918 4.956 6.034 6.034 0 0 1-1.042.908 7.696 7.696 0 0 0-4.586-4.081l-.702 2.167a5.412 5.412 0 0 1 3.607 3.965 5.367 5.367 0 0 1-1.084 4.571l1.767 1.438a7.622 7.622 0 0 0 1.662-5.761c.716-.464 1.348-.89 2.061-1.675a9.598 9.598 0 0 0 2.407-5.138c3.237.785 5.637 3.726 5.637 7.149a7.36 7.36 0 0 1-2.565 5.585l1.485 1.727a9.657 9.657 0 0 0 2.085-2.54 7.282 7.282 0 0 1 1.924 4.95c0 1.87-.694 3.609-1.925 4.952a9.654 9.654 0 0 0-2.329-2.745l-1.427 1.776a7.332 7.332 0 0 1 2.753 5.74c0 3.423-2.4 6.364-5.636 7.149a9.514 9.514 0 0 0-2.336-5.047 9.641 9.641 0 0 0 .441-4.575 9.638 9.638 0 0 0-.801-2.692l-2.064.962c.302.648.507 1.339.611 2.057a7.334 7.334 0 0 1-5.491 8.194l.552 2.211a9.6 9.6 0 0 0 5.63-3.92 7.297 7.297 0 0 1 1.286 4.162c0 4.059-3.302 7.362-7.361 7.362-4.059 0-7.362-3.302-7.362-7.362V31.721z" style="fill:rgb(51, 51, 51);animation-play-state:paused" ></path>
<path opacity=".2" d="M79.667 49.944c0-2.763-1.216-5.4-3.273-7.219a9.618 9.618 0 0 0 .344-2.504c0-4.649-3.379-8.626-7.859-9.47-.455-4.535-4.067-8.15-8.598-8.616.159.959.232 1.956.189 2.98 4.46 1.631 7.305 7.076 6.581 12.941a14.815 14.815 0 0 1-.743 3.114c1.825 2.555 2.661 6.035 2.231 9.52-.43 3.485-2.086 6.656-4.476 8.691.096 1.047.094 2.12-.04 3.204-.724 5.865-4.807 10.454-9.53 10.952a14.625 14.625 0 0 1-.761 2.494 9.579 9.579 0 0 0 5.556 1.776c4.988 0 9.102-3.808 9.59-8.669 4.48-.844 7.859-4.821 7.859-9.47a9.65 9.65 0 0 0-.342-2.506c2.056-1.82 3.272-4.455 3.272-7.218z" style="animation-play-state:paused" ></path></g>
<path opacity=".2" d="M42.347 22.082c-.267 0-.53.016-.791.038a9.673 9.673 0 0 1 1.554 5.24v37.949c0 4.581-3.215 8.447-7.588 9.646a9.597 9.597 0 0 0 6.825 2.853c5.315 0 9.64-4.324 9.64-9.64V31.721c0-5.315-4.325-9.639-9.64-9.639z" style="animation-play-state:paused" ></path>
<path d="M54.295 35.964v.592" stroke-miterlimit="10" stroke-width="3.5" stroke-linecap="round" stroke="#fff" fill="none" style="stroke:rgb(255, 255, 255);animation-play-state:paused" ></path>
<path stroke-miterlimit="10" stroke-width="3.5" stroke-linecap="round" stroke="#fff" fill="none" d="M58.695 27.013c-2.796 0-3.984 1.992-4.305 5.399" style="stroke:rgb(255, 255, 255);animation-play-state:paused" ></path>
<path stroke-miterlimit="10" stroke-width="3.5" stroke-linecap="round" stroke="#fff" fill="none" d="M30.237 38.679c.27-.723.715-1.36 1.283-1.86" style="stroke:rgb(255, 255, 255);animation-play-state:paused" ></path>
<path stroke-miterlimit="10" stroke-width="3.5" stroke-linecap="round" stroke="#fff" fill="none" d="M30.401 42.3a4.666 4.666 0 0 1-.131-.299" style="stroke:rgb(255, 255, 255);animation-play-state:paused" ></path>
<metadata xmlns:d="https://loading.io/stock/" style="animation-play-state:paused" ><d:name style="animation-play-state:paused" >ai</d:name>


<d:tags style="animation-play-state:paused" >ai,artificial intelligence,deep learning,machine learning,neural network,robot,brain</d:tags>


<d:license style="animation-play-state:paused" >by</d:license>


<d:slug style="animation-play-state:paused" >sjifst</d:slug></metadata></g><!-- generated by https://loading.io/ --></svg>