<?xml version="1.0" encoding="utf-8"?><svg xml:space="preserve" viewBox="0 0 100 100" y="0px" x="0px" xmlns:xlink="http://www.w3.org/1999/xlink" xmlns="http://www.w3.org/2000/svg" id="圖層_1" version="1.1" width="200px" height="200px" style="width:100%;height:100%;background-size:initial;background-repeat-y:initial;background-repeat-x:initial;background-position-y:initial;background-position-x:initial;background-origin:initial;background-color:initial;background-clip:initial;background-attachment:initial;animation-play-state:paused" ><g class="ldl-scale" style="transform-origin:50% 50%;transform:rotate(0deg) scale(0.8, 0.8);animation-play-state:paused" ><path d="M38.36,70H13.64C9.42,70,6,66.58,6,62.36V37.64C6,33.42,9.42,30,13.64,30h24.72c4.22,0,7.64,3.42,7.64,7.64v24.72 C46,66.58,42.58,70,38.36,70z" stroke-miterlimit="10" stroke-linejoin="round" stroke-linecap="round" stroke-width="3.5" stroke="#000000" fill="#FFFFFF" style="stroke:rgb(225, 92, 100);fill:rgb(255, 255, 255);animation-play-state:paused" ></path>
<circle r="5.89" cy="50" cx="26" stroke-miterlimit="10" stroke-linejoin="round" stroke-linecap="round" stroke-width="3.5" stroke="#000000" fill="#E15C64" style="stroke:rgb(225, 92, 100);fill:rgb(225, 92, 100);animation-play-state:paused" ></circle>
<path d="M94,37.64v24.72c0,4.22-3.42,7.64-7.64,7.64H61.64C57.42,70,54,66.58,54,62.36V37.64c0-4.22,3.42-7.64,7.64-7.64h24.72 C90.58,30,94,33.42,94,37.64z" stroke-miterlimit="10" stroke-linejoin="round" stroke-linecap="round" stroke-width="3.5" stroke="#000000" fill="#FFFFFF" style="stroke:rgb(225, 92, 100);fill:rgb(255, 255, 255);animation-play-state:paused" ></path>
<circle r="4.05" cy="50" cx="74" stroke-miterlimit="10" stroke-linejoin="round" stroke-linecap="round" stroke-width="3.5" stroke="#000000" fill="#333333" style="stroke:rgb(225, 92, 100);fill:rgb(225, 92, 100);animation-play-state:paused" ></circle>
<circle r="4.05" cy="59.57" cx="64.43" stroke-miterlimit="10" stroke-linejoin="round" stroke-linecap="round" stroke-width="3.5" stroke="#000000" fill="#333333" style="stroke:rgb(225, 92, 100);fill:rgb(225, 92, 100);animation-play-state:paused" ></circle>
<circle r="4.05" cy="40.43" cx="83.57" stroke-miterlimit="10" stroke-linejoin="round" stroke-linecap="round" stroke-width="3.5" stroke="#000000" fill="#333333" style="stroke:rgb(225, 92, 100);fill:rgb(225, 92, 100);animation-play-state:paused" ></circle>
<metadata xmlns:d="https://loading.io/stock/" style="animation-play-state:paused" ><d:name style="animation-play-state:paused" >toy</d:name>


<d:tags style="animation-play-state:paused" >toy,dice,random,throw,game,gambling,numbers</d:tags>


<d:license style="animation-play-state:paused" >by</d:license>


<d:slug style="animation-play-state:paused" >wwja1m</d:slug></metadata></g><!-- generated by https://loading.io/ --></svg>