<?xml version="1.0" encoding="utf-8"?>
<svg xml:space="preserve" viewBox="0 0 100 100" y="0" x="0" xmlns="http://www.w3.org/2000/svg"
    id="Layer_1" version="1.1" width="200px" height="200px"
    xmlns:xlink="http://www.w3.org/1999/xlink"
    style="width:100%;height:100%;background-size:initial;background-repeat-y:initial;background-repeat-x:initial;background-position-y:initial;background-position-x:initial;background-origin:initial;background-image:initial;background-clip:initial;background-attachment:initial;animation-play-state:paused"><g class="ldl-scale" style="transform-origin:50% 50%;transform:rotate(0deg) scale(0.8, 0.8);animation-play-state:paused" ><g style="animation-play-state:paused" ><g style="animation-play-state:paused" ><path fill="#f7b26a" d="M50 92.5c-9 0-17.7-2.8-25-8.1l8.8-12.1c4.7 3.4 10.3 5.3 16.2 5.3s11.5-1.8 16.2-5.3L75 84.4c-7.3 5.3-16 8.1-25 8.1z" style="fill:rgb(247, 178, 106);animation-play-state:paused" ></path></g>
<g style="animation-play-state:paused" ><path fill="#acbd81" d="M75 84.4l-8.8-12.1c7.1-5.2 11.4-13.5 11.4-22.3 0-2.9-.5-5.8-1.3-8.5l14.2-4.6c1.4 4.2 2.1 8.7 2.1 13.1C92.5 63.5 86 76.4 75 84.4z" style="fill:rgb(172, 189, 129);animation-play-state:paused" ></path></g>
<g style="animation-play-state:paused" ><path fill="#e15c64" d="M23.8 41.5L9.6 36.9C15.3 19.3 31.5 7.5 50 7.5v14.9c-12 0-22.5 7.7-26.2 19.1z" style="fill:rgb(225, 92, 100);animation-play-state:paused" ></path></g>
<g style="animation-play-state:paused" ><path fill="#f47e5f" d="M25 84.4C14 76.4 7.5 63.5 7.5 50c0-4.5.7-8.9 2.1-13.1l14.2 4.6c-.9 2.8-1.3 5.6-1.3 8.5 0 8.8 4.2 17.1 11.4 22.3L25 84.4z" style="fill:rgb(244, 126, 95);animation-play-state:paused" ></path></g>
<g style="animation-play-state:paused" ><path fill="#849b87" d="M76.2 41.5c-3.7-11.4-14.2-19-26.2-19v-15c18.5 0 34.7 11.8 40.4 29.4l-14.2 4.6z" style="fill:rgb(132, 155, 135);animation-play-state:paused" ></path></g></g>
<g style="animation-play-state:paused" ><g style="animation-play-state:paused" ><path fill="#f7b26a" d="M69.1 76.3c-5.6 4.1-12.2 6.2-19.1 6.2V71.1c4.5 0 8.8-1.4 12.4-4s6.3-6.3 7.6-10.5L80.9 60c-2.1 6.6-6.2 12.2-11.8 16.3z" style="fill:rgb(247, 178, 106);animation-play-state:paused" ></path></g>
<g style="animation-play-state:paused" ><path fill="#acbd81" d="M80.9 60L70 56.5c2.1-6.4 1-13.5-3-18.9-1.3-1.8-2.9-3.4-4.7-4.7l6.7-9.2c2.8 2 5.2 4.4 7.2 7.2 6.2 8.4 7.9 19.3 4.7 29.1z" style="fill:rgb(172, 189, 129);animation-play-state:paused" ></path></g>
<g style="animation-play-state:paused" ><path fill="#e15c64" d="M30 56.5L19.1 60c-4.4-13.4.4-28 11.8-36.3l6.7 9.2c-7.4 5.4-10.5 14.9-7.6 23.6z" style="fill:rgb(225, 92, 100);animation-play-state:paused" ></path></g>
<g style="animation-play-state:paused" ><path fill="#f47e5f" d="M50 82.5c-10.4 0-20.2-5-26.3-13.4-2-2.8-3.6-5.8-4.6-9.1L30 56.5c.7 2.1 1.7 4.1 3 5.9 3.9 5.4 10.3 8.7 17.1 8.7L50 82.5z" style="fill:rgb(244, 126, 95);animation-play-state:paused" ></path></g>
<g style="animation-play-state:paused" ><path fill="#849b87" d="M62.4 33C55 27.6 45 27.6 37.6 33l-6.7-9.2c11.4-8.3 26.8-8.3 38.2 0L62.4 33z" style="fill:rgb(132, 155, 135);animation-play-state:paused" ></path></g></g>
<g style="animation-play-state:paused" ><g style="animation-play-state:paused" ><path fill="#f7b26a" d="M71.4 56.9c-1.5 4.6-4.3 8.4-8.2 11.2l-4.6-6.4c2.5-1.8 4.3-4.3 5.3-7.3s1-6.1 0-9l7.5-2.5c1.5 4.7 1.5 9.5 0 14z" style="fill:rgb(247, 178, 106);animation-play-state:paused" ></path></g>
<g style="animation-play-state:paused" ><path fill="#acbd81" d="M71.4 43l-7.5 2.5c-1.4-4.4-4.9-7.9-9.4-9.4-1.5-.5-3-.7-4.5-.7v-7.9c2.4 0 4.7.4 7 1.1 6.8 2.2 12.2 7.6 14.4 14.4z" style="fill:rgb(172, 189, 129);animation-play-state:paused" ></path></g>
<g style="animation-play-state:paused" ><path fill="#e15c64" d="M41.4 61.8l-4.6 6.4c-7.9-5.7-11.2-15.9-8.2-25.2l7.5 2.4c-1.9 6.1.2 12.7 5.3 16.4z" style="fill:rgb(225, 92, 100);animation-play-state:paused" ></path></g>
<g style="animation-play-state:paused" ><path fill="#f47e5f" d="M63.2 68.2c-5.8 4.2-13.4 5.4-20.2 3.2-2.2-.7-4.4-1.8-6.3-3.2l4.6-6.4c1.2.9 2.6 1.6 4.1 2.1 4.4 1.4 9.3.7 13.1-2.1l4.7 6.4z" style="fill:rgb(244, 126, 95);animation-play-state:paused" ></path></g>
<g style="animation-play-state:paused" ><path fill="#849b87" d="M50 35.4c-6.3 0-11.9 4-13.9 10.1L28.6 43c3-9.3 11.6-15.5 21.4-15.5v7.9z" style="fill:rgb(132, 155, 135);animation-play-state:paused" ></path></g></g>
<g style="animation-play-state:paused" ><g style="animation-play-state:paused" ><path fill="#f7b26a" d="M64.3 45.4c1 3 1 6.2 0 9.3l-5-1.6c.6-2 .6-4 0-6s-1.9-3.6-3.5-4.9l3.1-4.3c2.5 1.8 4.4 4.4 5.4 7.5z" style="fill:rgb(247, 178, 106);animation-play-state:paused" ></path></g>
<g style="animation-play-state:paused" ><path fill="#acbd81" d="M58.8 37.9l-3.1 4.3c-2.5-1.8-5.8-2.3-8.7-1.4-1 .3-1.9.8-2.7 1.4l-3.1-4.3c1.3-.9 2.7-1.6 4.2-2.1 4.5-1.6 9.5-.8 13.4 2.1z" style="fill:rgb(172, 189, 129);animation-play-state:paused" ></path></g>
<g style="animation-play-state:paused" ><path fill="#e15c64" d="M50 59.7V65c-6.5 0-12.2-4.2-14.3-10.4l5-1.6c1.4 4 5.1 6.7 9.3 6.7z" style="fill:rgb(225, 92, 100);animation-play-state:paused" ></path></g>
<g style="animation-play-state:paused" ><path fill="#f47e5f" d="M64.3 54.6c-1.5 4.6-5.1 8.1-9.6 9.6-1.6.5-3.1.8-4.7.8v-5.3c1 0 2-.2 3-.5 2.9-1 5.3-3.3 6.2-6.2l5.1 1.6z" style="fill:rgb(244, 126, 95);animation-play-state:paused" ></path></g>
<g style="animation-play-state:paused" ><path fill="#849b87" d="M44.3 42.1A9.78 9.78 0 0 0 40.8 53l-5 1.6c-2-6.2.2-12.9 5.4-16.8l3.1 4.3z" style="fill:rgb(132, 155, 135);animation-play-state:paused" ></path></g></g>
<g style="animation-play-state:paused" ><g style="animation-play-state:paused" ><path fill="#f7b26a" d="M55.9 41.9c1.7 1.3 3 3 3.6 5L56.2 48c-.4-1.3-1.2-2.4-2.4-3.2-1.1-.8-2.4-1.2-3.8-1.2v-3.5c2.1-.1 4.2.6 5.9 1.8z" style="fill:rgb(247, 178, 106);animation-play-state:paused" ></path></g>
<g style="animation-play-state:paused" ><path fill="#acbd81" d="M50 40v3.5c-2.1 0-4 1-5.2 2.7-.4.6-.7 1.2-.9 1.8l-3.3-1.1c.3-1 .8-1.9 1.4-2.8 1.8-2.6 4.8-4.1 8-4.1z" style="fill:rgb(172, 189, 129);animation-play-state:paused" ></path></g>
<g style="animation-play-state:paused" ><path fill="#e15c64" d="M53.8 55.2l2.1 2.8c-3.5 2.6-8.2 2.6-11.8 0l2.1-2.8c2.3 1.7 5.3 1.7 7.6 0z" style="fill:rgb(225, 92, 100);animation-play-state:paused" ></path></g>
<g style="animation-play-state:paused" ><path fill="#f47e5f" d="M59.5 46.9c1 3 .5 6.4-1.4 9-.6.9-1.4 1.6-2.2 2.2l-2.1-2.8c.6-.4 1-.9 1.4-1.4 1.2-1.7 1.6-3.8.9-5.8l3.4-1.2z" style="fill:rgb(244, 126, 95);animation-play-state:paused" ></path></g>
<g style="animation-play-state:paused" ><path fill="#849b87" d="M43.8 48c-.9 2.7.1 5.6 2.4 7.2L44.1 58c-3.5-2.6-5-7-3.6-11.2l3.3 1.2z" style="fill:rgb(132, 155, 135);animation-play-state:paused" ></path></g></g>
<metadata xmlns:d="https://loading.io/stock/" style="animation-play-state:paused" ><d:name style="animation-play-state:paused" >maze</d:name>


<d:tags style="animation-play-state:paused" >ring,pie,coxcomb,nightingale,sunburst,circle,round,colosseum,arena,maze,spinner</d:tags>


<d:license style="animation-play-state:paused" >by</d:license>


<d:slug style="animation-play-state:paused" >vnv1es</d:slug></metadata></g><!--
    generated by https://loading.io/ --></svg>