<?xml version="1.0" encoding="utf-8"?>
<svg xml:space="preserve" viewBox="0 0 100 100" y="0" x="0" xmlns="http://www.w3.org/2000/svg"
    id="圖層_1" version="1.1" width="200px" height="200px" xmlns:xlink="http://www.w3.org/1999/xlink"
    style="width:100%;height:100%;background-size:initial;background-repeat-y:initial;background-repeat-x:initial;background-position-y:initial;background-position-x:initial;background-origin:initial;background-image:initial;background-clip:initial;background-attachment:initial;animation-play-state:paused"><g class="ldl-scale" style="transform-origin:50% 50%;transform:rotate(0deg) scale(0.8, 0.8);animation-play-state:paused" ><path d="M18.552 63.945h62.896" stroke-miterlimit="10" stroke-linecap="round" stroke-width="2.3" stroke="#E15B64" fill="none" style="stroke:#E15B64;animation-play-state:paused" ></path>
<path stroke-miterlimit="10" stroke-width="2.3" stroke="red" fill="#e0e0e0" d="M24.885 85.6h0a4.569 4.569 0 0 0 6.072-2.21l24.65-52.862-8.283-3.862-24.65 52.862a4.57 4.57 0 0 0 2.211 6.072z" style="stroke:#E15B64;fill:rgb(224, 224, 224);animation-play-state:paused" ></path>
<path d="M24.735 85.923L21.668 92.5" stroke-miterlimit="10" stroke-linecap="round" stroke-width="2.3" stroke="red" fill="none" style="stroke:#E15B64;animation-play-state:paused" ></path>
<path stroke-miterlimit="10" stroke-width="2.3" stroke="red" fill="#e0e0e0" d="M74.04 85.6h0a4.569 4.569 0 0 1-6.072-2.21l-24.65-52.862 8.283-3.862 24.65 52.862A4.57 4.57 0 0 1 74.04 85.6z" style="stroke:#E15B64;fill:rgb(224, 224, 224);animation-play-state:paused" ></path>
<path stroke-miterlimit="10" stroke-width="2.3" stroke="red" fill="#a0c8d7" d="M53.225 24.165h-7.526V11.263A3.763 3.763 0 0 1 49.462 7.5h0a3.763 3.763 0 0 1 3.763 3.763v12.902z" style="stroke:#E15B64;fill:purple;animation-play-state:paused" ></path>
<circle stroke-miterlimit="10" stroke-width="2.3" stroke="red" fill="#77a4bd" r="12.5" cy="33.94" cx="49.462" style="stroke:#E15B64;fill:#A0C8D7;animation-play-state:paused" ></circle>
<circle stroke-miterlimit="10" stroke-width="2.3" stroke="red" fill="#e0e0e0" r="5" cy="33.94" cx="49.462" style="stroke:#E15B64;fill:rgb(224, 224, 224);animation-play-state:paused" ></circle>
<path d="M74.19 85.923l3.067 6.577" stroke-miterlimit="10" stroke-linecap="round" stroke-width="2.3" stroke="red" fill="none" style="stroke:#E15B64;animation-play-state:paused" ></path>
<path d="M49.462 58.301v13.708" stroke-miterlimit="10" stroke-linecap="round" stroke-width="2.3" stroke="red" fill="none" style="stroke:#E15B64;animation-play-state:paused" ></path>
<metadata xmlns:d="https://loading.io/stock/" style="animation-play-state:paused" ><d:name style="animation-play-state:paused" >pencil compass</d:name>
<d:tags style="animation-play-state:paused" >pencil compass,compasses,protractor,bow pen,trammel,stationery</d:tags>
<d:license style="animation-play-state:paused" >by</d:license>
<d:slug style="animation-play-state:paused" >gqno7n</d:slug></metadata></g><!--
    generated by https://loading.io/ --></svg>