<?xml version="1.0" encoding="utf-8"?>
<svg xml:space="preserve" viewBox="0 0 100 100" y="0" x="0" xmlns="http://www.w3.org/2000/svg"
    id="圖層_1" version="1.1" width="200px" height="200px" xmlns:xlink="http://www.w3.org/1999/xlink"
    style="width:100%;height:100%;background-size:initial;background-repeat-y:initial;background-repeat-x:initial;background-position-y:initial;background-position-x:initial;background-origin:initial;background-image:initial;background-clip:initial;background-attachment:initial;animation-play-state:paused"><g class="ldl-scale" style="transform-origin:50% 50%;transform:rotate(0deg) scale(0.8, 0.8);animation-play-state:paused" ><path stroke-miterlimit="10" stroke-linecap="round" stroke-width="2.3" stroke="#333" fill="#a0c8d7" d="M92.19 59.018C89.683 37.956 71.725 21.567 50 21.567S10.317 37.956 7.81 59.018a42.726 42.726 0 0 0-.31 5.05v5.885a4.48 4.48 0 0 0 4.48 4.48h76.04a4.48 4.48 0 0 0 4.48-4.48v-5.885c0-1.71-.113-3.393-.31-5.05zm-67.357 0C27.186 47.274 37.575 38.399 50 38.399s22.814 8.875 25.167 20.619H24.833z" style="stroke:rgb(211, 76, 49);fill:white;animation-play-state:paused" ></path>
<path d="M50 22.958v7.147" stroke-miterlimit="10" stroke-linecap="round" stroke-width="2.3" stroke="#333" fill="none" style="stroke:rgb(211, 76, 49);animation-play-state:paused" ></path>
<path d="M50 22.958v4.463" stroke-miterlimit="10" stroke-linecap="round" stroke-width="2.3" stroke="#333" fill="none" style="stroke:rgb(211, 76, 49);animation-play-state:paused" ></path>
<path d="M39.191 24.342l1.155 4.311" stroke-miterlimit="10" stroke-linecap="round" stroke-width="2.3" stroke="#333" fill="none" style="stroke:rgb(211, 76, 49);animation-play-state:paused" ></path>
<path d="M29.108 28.476l2.232 3.865" stroke-miterlimit="10" stroke-linecap="round" stroke-width="2.3" stroke="#333" fill="none" style="stroke:rgb(211, 76, 49);animation-play-state:paused" ></path>
<path d="M13.775 43.701l3.864 2.231" stroke-miterlimit="10" stroke-linecap="round" stroke-width="2.3" stroke="#333" fill="none" style="stroke:rgb(211, 76, 49);animation-play-state:paused" ></path>
<path d="M9.569 53.754l4.31 1.155" stroke-miterlimit="10" stroke-linecap="round" stroke-width="2.3" stroke="#333" fill="none" style="stroke:rgb(211, 76, 49);animation-play-state:paused" ></path>
<path d="M90.21 54.042l-4.31 1.155" stroke-miterlimit="10" stroke-linecap="round" stroke-width="2.3" stroke="#333" fill="none" style="stroke:rgb(211, 76, 49);animation-play-state:paused" ></path>
<path d="M86.076 43.959l-3.865 2.232" stroke-miterlimit="10" stroke-linecap="round" stroke-width="2.3" stroke="#333" fill="none" style="stroke:rgb(211, 76, 49);animation-play-state:paused" ></path>
<path d="M70.852 28.626L68.62 32.49" stroke-miterlimit="10" stroke-linecap="round" stroke-width="2.3" stroke="#333" fill="none" style="stroke:rgb(211, 76, 49);animation-play-state:paused" ></path>
<path d="M60.799 24.419l-1.155 4.311" stroke-miterlimit="10" stroke-linecap="round" stroke-width="2.3" stroke="#333" fill="none" style="stroke:rgb(211, 76, 49);animation-play-state:paused" ></path>
<path d="M20.747 35.076l5.053 5.053" stroke-miterlimit="10" stroke-linecap="round" stroke-width="2.3" stroke="#333" fill="none" style="stroke:rgb(211, 76, 49);animation-play-state:paused" ></path>
<path d="M8.63 64.329h7.146" stroke-miterlimit="10" stroke-linecap="round" stroke-width="2.3" stroke="#333" fill="none" style="stroke:rgb(211, 76, 49);animation-play-state:paused" ></path>
<path d="M91.37 64.329h-7.146" stroke-miterlimit="10" stroke-linecap="round" stroke-width="2.3" stroke="#333" fill="none" style="stroke:rgb(211, 76, 49);animation-play-state:paused" ></path>
<path d="M79.253 35.076L74.2 40.129" stroke-miterlimit="10" stroke-linecap="round" stroke-width="2.3" stroke="#333" fill="none" style="stroke:rgb(211, 76, 49);animation-play-state:paused" ></path>
<metadata xmlns:d="https://loading.io/stock/" style="animation-play-state:paused" ><d:name style="animation-play-state:paused" >protractor</d:name>
<d:tags style="animation-play-state:paused" >protractor,angle,measure,leve,horizontal,degree,gauge,stationery</d:tags>
<d:license style="animation-play-state:paused" >by</d:license>
<d:slug style="animation-play-state:paused" >jqcci1</d:slug></metadata></g><!--
    generated by https://loading.io/ --></svg>