<?xml version="1.0" encoding="utf-8"?>
<svg viewBox="0 0 100 100" xmlns="http://www.w3.org/2000/svg" width="200px" height="200px"
    xmlns:xlink="http://www.w3.org/1999/xlink"
    style="width:100%;height:100%;background-size:initial;background-repeat-y:initial;background-repeat-x:initial;background-position-y:initial;background-position-x:initial;background-origin:initial;background-image:initial;background-clip:initial;background-attachment:initial;animation-play-state:paused">
    <g class="ldl-scale"
        style="transform-origin:50% 50%;transform:rotate(0deg) scale(0.8, 0.8);animation-play-state:paused">
        <path fill="#e15b64"
            d="M52.582 13.102c-.5-1-1.465-1.596-2.582-1.596s-2.082.596-2.582 1.596L41.75 24.436h16.5l-5.668-11.334z"
            style="fill:rgb(225, 91, 100);animation-play-state:paused"></path>
        <path d="M40.25 27.436l-9.176 18.353h37.852L59.75 27.436z" fill="#f8b26a"
            style="fill:rgb(248, 178, 106);animation-play-state:paused"></path>
        <path d="M29.574 48.789l-9.177 18.353h59.206l-9.177-18.353z" fill="#abbd81"
            style="fill:rgb(171, 189, 129);animation-play-state:paused"></path>
        <path fill="#a0c8d7"
            d="M11.938 87.125a2.83 2.83 0 0 0 2.455 1.369h71.215a2.83 2.83 0 0 0 2.455-1.369c.538-.87.584-1.894.127-2.808l-7.087-14.175H18.897L11.81 84.317a2.831 2.831 0 0 0 .128 2.808z"
            style="fill:rgb(160, 200, 215);animation-play-state:paused"></path>
        <metadata xmlns:d="https://loading.io/stock/" style="animation-play-state:paused">
            <d:name style="animation-play-state:paused">pyramid</d:name>


            <d:tags style="animation-play-state:paused">
                pyramid,funnel,step,hierarchy,layer,stage,level,infographics</d:tags>


            <d:license style="animation-play-state:paused">by</d:license>


            <d:slug style="animation-play-state:paused">bbxt7q</d:slug>
        </metadata>
    </g><!--
    generated by https://loading.io/ -->
</svg>